<?xml version="1.0" encoding="UTF-8"?>
<!DOCTYPE svg PUBLIC "-//W3C//DTD SVG 1.1//EN" "http://www.w3.org/Graphics/SVG/1.1/DTD/svg11.dtd">
<!-- Creator: CorelDRAW -->
<svg xmlns="http://www.w3.org/2000/svg" xml:space="preserve" width="1.70666in" height="1.70666in" version="1.1" style="shape-rendering:geometricPrecision; text-rendering:geometricPrecision; image-rendering:optimizeQuality; fill-rule:evenodd; clip-rule:evenodd"
viewBox="0 0 1707 1707"
 xmlns:xlink="http://www.w3.org/1999/xlink">
 <defs>
  <style type="text/css">
   <![CDATA[
    .fil4 {fill:#3C794D}
    .fil3 {fill:#4A955F}
    .fil2 {fill:#624A31}
    .fil1 {fill:#78B24D}
    .fil0 {fill:#94DC60}
   ]]>
  </style>
 </defs>
 <g id="Layer_x0020_1">
  <metadata id="CorelCorpID_0Corel-Layer"/>
  <g id="_561420240">
   <path class="fil0" d="M1131 1134c-14,0 -26,-11 -27,-25 -1,-15 10,-27 25,-28 8,-1 15,-2 22,-2 -32,-118 -70,-172 -71,-175 -7,-10 -20,-14 -31,-10l-21 7c-84,-105 -190,-162 -194,-164 -13,-7 -29,-2 -36,11l-3 4c-36,-24 -75,-43 -109,-58 0,6 0,12 0,18 0,15 -12,27 -26,27 0,0 -1,0 -1,0 -14,0 -26,-12 -26,-27 -1,-131 22,-198 23,-201 4,-11 16,-18 27,-18l22 2c54,-123 142,-206 146,-209 10,-10 27,-10 37,1l4 4c68,-77 158,-133 163,-136 6,-4 14,-5 22,-3 7,3 13,8 16,15l3 7c90,-71 217,-109 223,-110 8,-3 16,-1 22,3 7,4 11,11 12,19l2 11c96,-29 265,-24 303,14 38,38 42,207 13,303l12 2c8,1 15,5 19,12 4,6 5,14 3,22 -1,6 -39,133 -111,223l8 3c7,3 12,9 15,16 2,8 1,16 -3,22 -3,4 -59,95 -136,163l4 4c10,10 11,26 1,37 -4,4 -86,92 -209,146l1 21c1,12 -6,23 -17,27 -2,1 -44,16 -125,22 -1,0 -2,0 -2,0z"/>
   <path class="fil1" d="M1118 804c-7,0 -14,-3 -19,-8 -5,-5 -8,-12 -8,-19 0,-7 3,-14 8,-19 60,-60 60,-157 0,-217 -11,-11 -11,-27 0,-38 10,-10 27,-10 37,0 55,55 73,133 53,202 18,-5 37,-7 56,-7 55,0 107,21 147,60 10,11 10,28 0,38 -11,10 -28,10 -38,0 -29,-29 -68,-45 -109,-45 -41,0 -80,16 -109,45 -5,5 -12,8 -18,8z"/>
   <path class="fil1" d="M1390 523c-10,0 -19,-5 -24,-14l-4 -9c-24,-42 -48,-86 -48,-211 0,-15 12,-27 26,-27 0,0 0,0 0,0 15,0 27,12 27,27 1,112 19,146 41,185l5 9c7,13 3,29 -10,36 -4,3 -9,4 -13,4z"/>
   <path class="fil1" d="M1504 550c0,0 0,0 0,0 -72,0 -98,-14 -122,-28l-5 -3c-13,-7 -18,-23 -11,-36 8,-13 24,-18 37,-10l5 2c20,12 38,21 96,22 15,0 27,12 27,26 0,15 -12,27 -27,27z"/>
  </g>
  <g id="_561418056">
   <path class="fil2" d="M1366 1521c-1,0 -3,0 -4,0 -834,-132 -1345,-707 -1350,-713 -10,-11 -8,-28 3,-38 11,-9 27,-8 37,3 5,6 504,566 1318,695 15,3 25,16 22,31 -2,13 -13,22 -26,22z"/>
   <path class="fil3" d="M910 1644c-17,0 -27,-1 -28,-1 -11,-1 -20,-9 -23,-20l-3 -12c-93,26 -156,30 -186,30 -11,0 -16,0 -16,0 -11,-1 -21,-10 -24,-22l-4 -21c-133,-21 -235,-84 -239,-87 -13,-7 -17,-24 -9,-36l3 -5c-92,-46 -170,-118 -174,-122 -5,-5 -8,-13 -8,-20 0,-8 4,-15 10,-20l6 -5c-92,-68 -161,-181 -164,-187 -4,-6 -5,-14 -3,-22 3,-7 8,-13 15,-16l11 -5c-53,-85 -92,-249 -65,-296 28,-48 194,-95 289,-92l-1 -11c-1,-8 1,-16 6,-22 5,-5 13,-9 21,-9 6,1 139,4 244,50l1 -8c1,-8 5,-14 12,-19 6,-4 15,-5 22,-3 5,2 107,33 192,89l3 -4c7,-13 23,-18 36,-11 4,2 110,59 194,164l21 -7c11,-4 24,0 31,10 1,3 42,61 75,189l12 -3c10,-3 22,1 28,10 6,7 133,180 21,374 -89,154 -243,170 -306,170z"/>
   <path class="fil4" d="M457 1373c-5,0 -10,-1 -14,-3 -12,-8 -17,-24 -9,-37 27,-48 72,-82 125,-96 19,-5 37,-7 56,-7 -10,-16 -17,-34 -22,-52 -14,-54 -7,-109 21,-157 7,-13 24,-17 36,-10 13,7 17,24 10,36 -20,36 -26,77 -15,117 10,40 36,73 71,93 9,5 14,14 14,24 0,4 -1,9 -4,13 -7,13 -24,17 -36,10 -36,-21 -77,-26 -117,-16 -40,11 -73,36 -93,72 -5,8 -14,13 -23,13z"/>
   <path class="fil4" d="M805 1514c-2,0 -5,0 -7,-1 -14,-4 -23,-18 -19,-32 11,-42 38,-76 75,-98 9,-5 19,-9 29,-13 -34,-39 -49,-94 -35,-147 4,-14 19,-23 33,-19 14,4 23,18 19,33 -16,56 18,115 75,130 12,4 20,14 20,26 0,2 0,5 -1,7 -4,14 -18,23 -33,19 -27,-8 -56,-4 -81,11 -24,14 -42,37 -49,64 -4,12 -14,20 -26,20z"/>
   <path class="fil4" d="M367 1106c-2,0 -4,0 -6,-1 -14,-3 -23,-18 -20,-32l3 -10c11,-44 20,-81 -8,-190 -4,-14 4,-29 19,-32 14,-4 28,4 32,19 32,121 20,169 9,216l-3 10c-3,12 -14,20 -26,20z"/>
   <path class="fil4" d="M264 1162c-12,0 -23,-8 -26,-20 -4,-14 5,-28 19,-32 57,-16 71,-30 88,-46l4 -4c11,-10 27,-10 38,1 10,11 9,28 -1,38l-4 3c-20,20 -41,40 -111,59 -2,1 -5,1 -7,1z"/>
  </g>
 </g>
</svg>
