<svg id="Page-1" xmlns="http://www.w3.org/2000/svg" width="500" height="500" viewBox="0 0 500 500">
  <g id="logo_UH">
    <rect id="Rectangle" width="500" height="500" fill="#f0f0dc"/>
    <g id="Group-2" transform="translate(96 60)">
      <g id="Group" transform="translate(0 253)">
        <path id="Shape" d="M306.826,105.421a25.3,25.3,0,0,0-6.465-6.65l-7.345-5.32a14.585,14.585,0,0,1-3.429-3.36,5.871,5.871,0,0,1-1.193-3.359,4.8,4.8,0,0,1,5.03-5A4.621,4.621,0,0,1,297.1,83.3a6.237,6.237,0,0,1,1.358,4.22v.938a1.486,1.486,0,0,0,1.436,1.484h7.1a1.4,1.4,0,0,0,1.075-.469,1.48,1.48,0,0,0,.44-1.015V87.278q0-6.723-4.269-10.717T293.1,72.571a16.275,16.275,0,0,0-11.409,4.067,13.426,13.426,0,0,0-4.473,10.4,13.233,13.233,0,0,0,1.954,7.08A25.286,25.286,0,0,0,286,100.808l7.58,5.551a14.258,14.258,0,0,1,3.515,3.205,5.463,5.463,0,0,1,.958,3.129,4.956,4.956,0,0,1-1.476,3.752,5.383,5.383,0,0,1-3.868,1.407,5.511,5.511,0,0,1-4.072-1.6,5.667,5.667,0,0,1-1.593-4.19v-1.092a1.4,1.4,0,0,0-.44-1.053,1.413,1.413,0,0,0-1-.43h-7.023a1.531,1.531,0,0,0-1.036.43,1.375,1.375,0,0,0-.479,1.053v.938q0,6.965,4.277,11.024,4.26,4.059,11.37,4.067a17.1,17.1,0,0,0,11.692-4.028A13.068,13.068,0,0,0,309,112.686a13.64,13.64,0,0,0-2.174-7.265m-42.341,12.315a1.5,1.5,0,0,0-1.075-.43H248.4a1.481,1.481,0,0,1-1.075-.431,1.344,1.344,0,0,1-.439-.976V74.686a1.426,1.426,0,0,0-.44-1.053,1.483,1.483,0,0,0-1.075-.431h-7.745a1.488,1.488,0,0,0-1.436,1.484v50.208a1.4,1.4,0,0,0,.44,1.053,1.367,1.367,0,0,0,1,.43H263.41a1.452,1.452,0,0,0,1.075-.43,1.346,1.346,0,0,0,.439-.977v-6.257a1.359,1.359,0,0,0-.439-.977m-44.782,0a1.484,1.484,0,0,0-1.075-.43H204.1a1.465,1.465,0,0,1-1.036-.469,1.423,1.423,0,0,1-.479-1.015V105.5a1.379,1.379,0,0,1,.479-1.054,1.546,1.546,0,0,1,1.036-.43h6.387a1.45,1.45,0,0,0,1.075-.431,1.344,1.344,0,0,0,.439-.976V96.5a1.424,1.424,0,0,0-.439-1.053,1.483,1.483,0,0,0-1.075-.43H204.1a1.433,1.433,0,0,1-1.036-.469,1.4,1.4,0,0,1-.479-1.015V83.757a1.376,1.376,0,0,1,.479-1.053,1.544,1.544,0,0,1,1.036-.431h14.524a1.483,1.483,0,0,0,1.075-.431,1.346,1.346,0,0,0,.44-.976V74.686a1.426,1.426,0,0,0-.44-1.053,1.483,1.483,0,0,0-1.075-.431H193.322a1.384,1.384,0,0,0-1,.431,1.422,1.422,0,0,0-.44,1.053v50.208a1.422,1.422,0,0,0,.44,1.053,1.365,1.365,0,0,0,1,.43h25.306a1.453,1.453,0,0,0,1.075-.43,1.347,1.347,0,0,0,.44-.977v-6.18a1.44,1.44,0,0,0-.44-1.054M142.836,81.843a1.483,1.483,0,0,0,1.075.431h8.459a1.555,1.555,0,0,1,1.075.392,1.307,1.307,0,0,1,.439,1.015v41.214a1.4,1.4,0,0,0,.439,1.053,1.369,1.369,0,0,0,1,.43h7.745a1.43,1.43,0,0,0,1.075-.469,1.481,1.481,0,0,0,.439-1.014V83.68a1.278,1.278,0,0,1,.44-1.015,1.551,1.551,0,0,1,1.075-.392h8.545a1.4,1.4,0,0,0,1-.431,1.421,1.421,0,0,0,.44-1.053V74.609a1.312,1.312,0,0,0-.44-.976,1.5,1.5,0,0,0-1.075-.431H143.911a1.483,1.483,0,0,0-1.075.431,1.316,1.316,0,0,0-.44.976v6.258a1.316,1.316,0,0,0,.44.976m-15.043,23.578a25.321,25.321,0,0,0-6.465-6.65l-7.345-5.32a14.585,14.585,0,0,1-3.429-3.36,5.877,5.877,0,0,1-1.2-3.359,4.8,4.8,0,0,1,5.03-5,4.6,4.6,0,0,1,3.672,1.568,6.2,6.2,0,0,1,1.358,4.22v.938a1.486,1.486,0,0,0,1.436,1.484h7.1a1.4,1.4,0,0,0,1.075-.469,1.479,1.479,0,0,0,.44-1.015V87.278q0-6.723-4.269-10.717t-11.135-3.99a16.275,16.275,0,0,0-11.409,4.067,13.427,13.427,0,0,0-4.473,10.4,13.23,13.23,0,0,0,1.954,7.08,25.286,25.286,0,0,0,6.827,6.688l7.58,5.551a14.072,14.072,0,0,1,3.508,3.205,5.41,5.41,0,0,1,.957,3.129,4.955,4.955,0,0,1-1.475,3.752,5.387,5.387,0,0,1-3.869,1.407,5.5,5.5,0,0,1-4.072-1.6,5.671,5.671,0,0,1-1.593-4.19v-1.092a1.421,1.421,0,0,0-.44-1.053,1.4,1.4,0,0,0-1-.43H99.537a1.516,1.516,0,0,0-1.036.43,1.376,1.376,0,0,0-.479,1.053v.938q0,6.965,4.269,11.024T113.669,127a17.079,17.079,0,0,0,11.692-4.028,13.068,13.068,0,0,0,4.59-10.286,13.621,13.621,0,0,0-2.158-7.265M62.735,115.937A8.921,8.921,0,0,1,61.3,110.5V89.154a9.208,9.208,0,0,1,1.4-5.55,5.366,5.366,0,0,1,8.184.038,9.064,9.064,0,0,1,1.436,5.512V112.3a5.407,5.407,0,0,1-1.593,3.952,5.317,5.317,0,0,1-3.916,1.6,4.789,4.789,0,0,1-4.073-1.915M55.069,76.953A15.168,15.168,0,0,0,50.6,88.293v23.693a14.008,14.008,0,0,0,4.59,10.793A16.5,16.5,0,0,0,66.8,127a16.345,16.345,0,0,0,11.574-4.3A14.124,14.124,0,0,0,83,111.909V87.585a14.038,14.038,0,0,0-4.551-10.832A16.568,16.568,0,0,0,66.8,72.571q-7.262,0-11.731,4.382M21.948,73.632a1.351,1.351,0,0,0-.479,1.053V93.374a1.486,1.486,0,0,1-1.436,1.484H12.21a1.463,1.463,0,0,1-1.036-.469,1.4,1.4,0,0,1-.479-1.015V74.686a1.424,1.424,0,0,0-.439-1.053A1.484,1.484,0,0,0,9.181,73.2H1.436a1.385,1.385,0,0,0-1,.431A1.424,1.424,0,0,0,0,74.686v50.208a1.424,1.424,0,0,0,.439,1.053,1.367,1.367,0,0,0,1,.43H9.181a1.429,1.429,0,0,0,1.075-.469,1.48,1.48,0,0,0,.439-1.014V105.421a1.453,1.453,0,0,1,.439-1.061,1.4,1.4,0,0,1,1-.431h7.9a1.4,1.4,0,0,1,1,.431,1.441,1.441,0,0,1,.439,1.061v19.473a1.424,1.424,0,0,0,.439,1.053,1.368,1.368,0,0,0,1,.43H30.65a1.429,1.429,0,0,0,1.075-.469,1.466,1.466,0,0,0,.439-1.014V74.686a1.424,1.424,0,0,0-.439-1.053A1.484,1.484,0,0,0,30.65,73.2H22.991a1.485,1.485,0,0,0-1.044.431"/>
        <path id="Shape-2" data-name="Shape" d="M279.762,53.317a1.508,1.508,0,0,0,.439-1.026V36.078a18.261,18.261,0,0,1,.079-2.061,7.41,7.41,0,0,1,.478-1.664L291.6,2.061a1.428,1.428,0,0,0-.117-1.423A1.426,1.426,0,0,0,290.242,0h-7.336a1.863,1.863,0,0,0-1.113.241,2.013,2.013,0,0,0-.557,1.026l-5.581,17.72c-.212.739-.384,1.1-.517,1.1s-.33-.365-.6-1.1L269.2,1.508a1.916,1.916,0,0,0-.6-1.151A1.667,1.667,0,0,0,267.527,0H259.79a1.465,1.465,0,0,0-1.239.591,1.5,1.5,0,0,0-.2,1.384l10.683,30.449a11.545,11.545,0,0,1,.439,1.617,10.713,10.713,0,0,1,.118,1.781V52.275a1.449,1.449,0,0,0,.439,1.065,1.388,1.388,0,0,0,.995.435h7.651a1.34,1.34,0,0,0,1.089-.459m-60.121.039a1.449,1.449,0,0,0,.439-1.065l-.4-31.716c0-.155.054-.249.164-.28s.18.07.243.28l12.44,32.268a2.077,2.077,0,0,0,.556.715,1.4,1.4,0,0,0,.878.241h7.172a1.42,1.42,0,0,0,1.074-.474,1.508,1.508,0,0,0,.439-1.026V1.516a1.449,1.449,0,0,0-.439-1.065,1.472,1.472,0,0,0-1.074-.435h-6.78a1.52,1.52,0,0,0-1.035.435,1.4,1.4,0,0,0-.478,1.065l.4,31.242c0,.163-.039.249-.117.28s-.142-.039-.2-.2L220.566,1.275a2.189,2.189,0,0,0-.642-.949,1.3,1.3,0,0,0-.8-.319h-7.337a1.388,1.388,0,0,0-.995.435,1.449,1.449,0,0,0-.439,1.065V52.29a1.419,1.419,0,0,0,.439,1.065,1.388,1.388,0,0,0,.995.435h6.859a1.358,1.358,0,0,0,1-.435m-24.51-.078a1.558,1.558,0,0,0,.243-1.306l-11.4-50.7a2.129,2.129,0,0,0-.518-.91A1.265,1.265,0,0,0,182.534,0h-8.928a1.274,1.274,0,0,0-.878.358,1.888,1.888,0,0,0-.556.91l-11.8,50.626a1.488,1.488,0,0,0,.165,1.384,1.514,1.514,0,0,0,1.277.513H169.3a1.536,1.536,0,0,0,1-.241,1.783,1.783,0,0,0,.439-.949l1.113-5.692a1.378,1.378,0,0,1,.478-.949,1.508,1.508,0,0,1,.957-.319h8.693a1.429,1.429,0,0,1,1,.319,1.448,1.448,0,0,1,.439.949l1.113,5.692a1.4,1.4,0,0,0,.478.832,1.366,1.366,0,0,0,.957.358h7.971a1.439,1.439,0,0,0,1.2-.513M181.57,37.424a1.055,1.055,0,0,1-.878.319h-5.981a1.036,1.036,0,0,1-.838-.319,1.182,1.182,0,0,1-.2-.949l3.99-21.04c.054-.21.1-.319.164-.319s.1.109.157.319l3.747,21.04a1.261,1.261,0,0,1-.157.949m-34.8-5.738A12.814,12.814,0,0,0,142.5,26.9a.716.716,0,0,1-.321-.591.689.689,0,0,1,.321-.591,14.483,14.483,0,0,0,3.825-4.829,13.309,13.309,0,0,0,1.356-5.933A13.848,13.848,0,0,0,143.02,4.23,16.649,16.649,0,0,0,131.42,0H117.545a1.388,1.388,0,0,0-.995.435,1.449,1.449,0,0,0-.439,1.065V52.283a1.419,1.419,0,0,0,.439,1.065,1.388,1.388,0,0,0,.995.435h13.718a17.216,17.216,0,0,0,12.243-4.51,14.737,14.737,0,0,0,4.821-11.228,13.611,13.611,0,0,0-1.56-6.36m-19.619-9.611a1.188,1.188,0,0,1-.361-.949V10.054a1.188,1.188,0,0,1,.361-.949,1.468,1.468,0,0,1,1-.319h2.312a7.084,7.084,0,0,1,5.142,1.742,6.532,6.532,0,0,1,1.795,4.9,7.2,7.2,0,0,1-1.755,5.023,6.133,6.133,0,0,1-4.782,1.936h-2.712a1.427,1.427,0,0,1-1-.311m0,22.541a1.188,1.188,0,0,1-.361-.949V32.121a1.188,1.188,0,0,1,.361-.949,1.468,1.468,0,0,1,1-.319h2.634a7.027,7.027,0,0,1,5.181,1.9,6.7,6.7,0,0,1,1.913,4.984,7.075,7.075,0,0,1-1.991,5.178,6.974,6.974,0,0,1-5.182,2.022h-2.547a1.476,1.476,0,0,1-1-.319M77.71,53.356a1.449,1.449,0,0,0,.439-1.065V34.414a1.038,1.038,0,0,1,.2-.754,1.411,1.411,0,0,1,.917-.194H81.5a1.347,1.347,0,0,1,.76.155,2.018,2.018,0,0,1,.439.793l6.624,18.35a1.38,1.38,0,0,0,.517.793,1.454,1.454,0,0,0,.839.241h8.372a1.48,1.48,0,0,0,1.316-.638,1.429,1.429,0,0,0,.118-1.423L92.353,31.094a2.87,2.87,0,0,1-.243-1.306,1.4,1.4,0,0,1,.643-.832,15.318,15.318,0,0,0,5.22-5.692,16.648,16.648,0,0,0,1.63-7.589q0-7.511-4.586-11.585T82.061.016H68.9a1.375,1.375,0,0,0-1,.435,1.449,1.449,0,0,0-.439,1.065V52.3a1.449,1.449,0,0,0,.439,1.065,1.388,1.388,0,0,0,1,.436h7.815a1.384,1.384,0,0,0,1-.443m.8-30.052a1.322,1.322,0,0,1-.361-.987V10.373a1.416,1.416,0,0,1,.361-1.065,1.321,1.321,0,0,1,1-.358H81.9a6.486,6.486,0,0,1,4.946,1.936,7.339,7.339,0,0,1,1.834,5.256,7.841,7.841,0,0,1-1.873,5.42,6.26,6.26,0,0,1-4.907,2.1H79.505a1.364,1.364,0,0,1-1-.358M28.438,43.434a7.223,7.223,0,0,1-1.4-4.665V1.516A1.449,1.449,0,0,0,26.6.451,1.473,1.473,0,0,0,25.53.016H17.793a1.388,1.388,0,0,0-1,.435,1.419,1.419,0,0,0-.439,1.065V39.8a13.646,13.646,0,0,0,4.429,10.6,16.319,16.319,0,0,0,11.444,4.035q7.254,0,11.6-3.958T48.175,39.8V1.516A1.449,1.449,0,0,0,47.736.451,1.491,1.491,0,0,0,46.654.016H38.918a1.375,1.375,0,0,0-1,.435,1.449,1.449,0,0,0-.439,1.065V38.769a7.223,7.223,0,0,1-1.4,4.665,4.688,4.688,0,0,1-3.864,1.742,4.587,4.587,0,0,1-3.786-1.742"/>
      </g>
      <path id="Path" d="M124.484,218.531Q143.994,200.49,144,169.8V6.852a6.676,6.676,0,0,0-1.965-4.871A6.579,6.579,0,0,0,137.2,0H102.469a6.145,6.145,0,0,0-4.476,1.981,6.668,6.668,0,0,0-1.971,4.871V165.113q0,13.36-6.27,21.3a20.092,20.092,0,0,1-7.781,6.091A3.44,3.44,0,0,0,80,195.678v36.774a3.5,3.5,0,0,0,3.82,3.528q24.7-2.7,40.664-17.449"/>
      <path id="Path-2" data-name="Path" d="M54.249,186.654q-6.272-7.905-6.263-21.211V7.83a6.631,6.631,0,0,0-1.971-4.851A6.578,6.578,0,0,0,41.183,1H6.447A6.173,6.173,0,0,0,1.971,2.979,6.617,6.617,0,0,0,0,7.83V170.115q0,29.839,19.876,48.169,16.2,14.943,40.145,17.692A3.538,3.538,0,0,0,64,232.481V195.913a3.415,3.415,0,0,0-1.965-3.156,20.109,20.109,0,0,1-7.786-6.1"/>
      <path id="Path-3" data-name="Path" d="M212,87.365V6.867a6.59,6.59,0,0,0-2.013-4.878A6.782,6.782,0,0,0,205.052,0H169.584a6.352,6.352,0,0,0-4.571,1.99A6.59,6.59,0,0,0,163,6.867V227.133a6.568,6.568,0,0,0,2.013,4.877,6.325,6.325,0,0,0,4.571,1.99h35.468a6.477,6.477,0,0,0,4.935-2.169,6.816,6.816,0,0,0,2.013-4.7V87.365Z"/>
      <path id="Path-4" data-name="Path" d="M302.163,0H267.552a6.843,6.843,0,0,0-4.686,1.99A6.365,6.365,0,0,0,260.7,6.867v80.5a6.662,6.662,0,0,1-1.985,4.878,6.2,6.2,0,0,1-4.506,1.99H230.536A3.54,3.54,0,0,0,227,97.777v34.832a3.54,3.54,0,0,0,3.536,3.545h23.676a6.23,6.23,0,0,1,4.506,1.99,6.661,6.661,0,0,1,1.985,4.878v84.111a6.592,6.592,0,0,0,1.984,4.877,6.183,6.183,0,0,0,4.506,1.99h34.964a6.345,6.345,0,0,0,4.865-2.169,6.857,6.857,0,0,0,1.978-4.7V6.867a6.656,6.656,0,0,0-1.978-4.878A6.6,6.6,0,0,0,302.163,0"/>
    </g>
  </g>
</svg>
