<svg xmlns="http://www.w3.org/2000/svg" width="297" height="297" viewBox="0 0 297 297">
  <g id="Grupo_1496" data-name="Grupo 1496" transform="translate(-937.49 -283.49)">
    <rect id="Rectángulo_1034" data-name="Rectángulo 1034" width="297" height="297" transform="translate(937.49 283.49)"/>
    <g id="UH_URBAN_HOSTELS_MONOCROMATICO_RGB" transform="translate(983.963 312.676)">
      <g id="Grupo_1494" data-name="Grupo 1494" transform="translate(0 0)">
        <path id="Trazado_1560" data-name="Trazado 1560" d="M211.91,540.72a13.172,13.172,0,0,0-3.326-3.492l-3.779-2.794a7.58,7.58,0,0,1-1.764-1.764,3.122,3.122,0,0,1-.614-1.764,2.591,2.591,0,0,1,.719-1.889,2.487,2.487,0,0,1,1.869-.739,2.356,2.356,0,0,1,1.889.823,3.321,3.321,0,0,1,.7,2.216v.492a.74.74,0,0,0,.226.553.712.712,0,0,0,.513.226H212a.715.715,0,0,0,.553-.246.786.786,0,0,0,.226-.533v-.618a7.424,7.424,0,0,0-2.2-5.627,7.96,7.96,0,0,0-5.728-2.1,8.272,8.272,0,0,0-5.87,2.135,7.534,7.534,0,0,0-1.3,9.18A13.147,13.147,0,0,0,201.2,538.3l3.9,2.915A7.4,7.4,0,0,1,206.9,542.9a2.91,2.91,0,0,1,.492,1.643,2.63,2.63,0,0,1-.759,1.97,2.738,2.738,0,0,1-1.99.739,2.805,2.805,0,0,1-2.1-.84,3.011,3.011,0,0,1-.819-2.2v-.573a.74.74,0,0,0-.226-.553.719.719,0,0,0-.513-.226h-3.613a.778.778,0,0,0-.533.226.73.73,0,0,0-.246.553v.492a7.69,7.69,0,0,0,2.2,5.789,8.04,8.04,0,0,0,5.849,2.136,8.685,8.685,0,0,0,6.015-2.115,6.925,6.925,0,0,0,2.362-5.4,7.268,7.268,0,0,0-1.118-3.815m-21.783,6.467a.762.762,0,0,0-.553-.226h-7.723a.756.756,0,0,1-.553-.226.713.713,0,0,1-.226-.513V524.58a.772.772,0,0,0-.779-.779h-3.984a.712.712,0,0,0-.513.226.74.74,0,0,0-.226.553v26.365a.74.74,0,0,0,.226.553.7.7,0,0,0,.513.226h13.265a.74.74,0,0,0,.553-.226.712.712,0,0,0,.226-.513V547.7a.72.72,0,0,0-.226-.513m-23.039,0a.755.755,0,0,0-.553-.226h-7.472a.85.85,0,0,1-.779-.779V540.76a.729.729,0,0,1,.246-.553.787.787,0,0,1,.533-.226h3.286a.74.74,0,0,0,.553-.226.713.713,0,0,0,.226-.513v-3.205a.772.772,0,0,0-.779-.779h-3.286a.731.731,0,0,1-.533-.246.744.744,0,0,1-.246-.533v-5.135a.729.729,0,0,1,.246-.553.786.786,0,0,1,.533-.226h7.472a.755.755,0,0,0,.553-.226.712.712,0,0,0,.226-.513V524.58a.772.772,0,0,0-.779-.779H153.517a.706.706,0,0,0-.513.226.755.755,0,0,0-.226.553v26.365a.755.755,0,0,0,.226.553.7.7,0,0,0,.513.226h13.019a.74.74,0,0,0,.553-.226.712.712,0,0,0,.226-.513V547.74a.762.762,0,0,0-.226-.553m-39.545-18.848a.755.755,0,0,0,.553.226h4.352a.789.789,0,0,1,.553.206.692.692,0,0,1,.226.533v21.642a.74.74,0,0,0,.226.553.7.7,0,0,0,.513.226h3.984a.729.729,0,0,0,.553-.246.786.786,0,0,0,.226-.533V529.3a.679.679,0,0,1,.226-.533.789.789,0,0,1,.553-.206h4.4a.712.712,0,0,0,.513-.226.756.756,0,0,0,.226-.553V524.54a.7.7,0,0,0-.226-.513.762.762,0,0,0-.553-.226H128.1a.755.755,0,0,0-.553.226.7.7,0,0,0-.226.513v3.286a.7.7,0,0,0,.226.513M119.8,540.72a13.172,13.172,0,0,0-3.326-3.492l-3.779-2.794a7.579,7.579,0,0,1-1.764-1.764,3.129,3.129,0,0,1-.618-1.764,2.591,2.591,0,0,1,.719-1.889,2.487,2.487,0,0,1,1.869-.739,2.345,2.345,0,0,1,1.889.823,3.3,3.3,0,0,1,.7,2.216v.492a.739.739,0,0,0,.226.553.712.712,0,0,0,.513.226h3.653a.715.715,0,0,0,.553-.246.786.786,0,0,0,.226-.533v-.618a7.424,7.424,0,0,0-2.2-5.627,7.96,7.96,0,0,0-5.728-2.1,8.272,8.272,0,0,0-5.87,2.135,7.534,7.534,0,0,0-1.3,9.18,13.146,13.146,0,0,0,3.512,3.512l3.9,2.915a7.291,7.291,0,0,1,1.8,1.683,2.88,2.88,0,0,1,.492,1.643,2.63,2.63,0,0,1-.759,1.97,2.738,2.738,0,0,1-1.99.739,2.8,2.8,0,0,1-2.1-.84,3.011,3.011,0,0,1-.82-2.2v-.573a.756.756,0,0,0-.226-.553.712.712,0,0,0-.513-.226h-3.613a.771.771,0,0,0-.533.226.73.73,0,0,0-.246.553v.492a7.688,7.688,0,0,0,2.2,5.789,8.05,8.05,0,0,0,5.853,2.136,8.678,8.678,0,0,0,6.015-2.115,6.925,6.925,0,0,0,2.362-5.4,7.258,7.258,0,0,0-1.11-3.815m-33.47,5.522a4.757,4.757,0,0,1-.739-2.854v-11.21a4.912,4.912,0,0,1,.719-2.915,2.725,2.725,0,0,1,4.21.02,4.834,4.834,0,0,1,.739,2.895v12.155a2.869,2.869,0,0,1-.819,2.075,2.707,2.707,0,0,1-2.014.84,2.446,2.446,0,0,1-2.1-1.005m-3.944-20.471a8.052,8.052,0,0,0-2.3,5.954v12.442a7.429,7.429,0,0,0,2.362,5.668,9.071,9.071,0,0,0,11.929-.04,7.489,7.489,0,0,0,2.382-5.668V531.354a7.446,7.446,0,0,0-2.341-5.688,8.422,8.422,0,0,0-5.995-2.2,8.158,8.158,0,0,0-6.035,2.3m-17.04-1.744a.716.716,0,0,0-.246.553v9.814a.755.755,0,0,1-.226.553.719.719,0,0,1-.513.226H60.341a.85.85,0,0,1-.779-.779V524.58a.772.772,0,0,0-.779-.779H54.8a.706.706,0,0,0-.513.226.756.756,0,0,0-.226.553v26.365a.755.755,0,0,0,.226.553.7.7,0,0,0,.513.226h3.984a.73.73,0,0,0,.553-.246.786.786,0,0,0,.226-.533V540.72a.771.771,0,0,1,.226-.557.712.712,0,0,1,.513-.226h4.065a.712.712,0,0,1,.513.226.764.764,0,0,1,.226.557v10.225a.755.755,0,0,0,.226.553.7.7,0,0,0,.513.226h3.984a.729.729,0,0,0,.553-.246.778.778,0,0,0,.226-.533V524.58a.772.772,0,0,0-.779-.779h-3.94a.757.757,0,0,0-.537.226" transform="translate(-32.636 -312.555)" fill="#f0f0dc"/>
        <path id="Trazado_1561" data-name="Trazado 1561" d="M211.226,458.371a.787.787,0,0,0,.226-.533v-8.417a9.582,9.582,0,0,1,.04-1.07,3.88,3.88,0,0,1,.246-.864l5.583-15.728a.747.747,0,0,0-.061-.739.732.732,0,0,0-.638-.331h-3.779a.954.954,0,0,0-.573.125,1.048,1.048,0,0,0-.287.533l-2.874,9.2c-.109.383-.2.573-.266.573s-.17-.19-.307-.573l-2.749-9.075a1,1,0,0,0-.311-.6.855.855,0,0,0-.553-.186H200.94a.751.751,0,0,0-.638.307.785.785,0,0,0-.1.719l5.5,15.808a6.086,6.086,0,0,1,.226.84,5.643,5.643,0,0,1,.061.925v8.542a.755.755,0,0,0,.226.553.712.712,0,0,0,.513.226h3.94a.688.688,0,0,0,.561-.238m-30.963.02a.755.755,0,0,0,.226-.553l-.206-16.466q0-.121.085-.145c.052-.012.093.036.125.145l6.407,16.753a1.076,1.076,0,0,0,.287.371.716.716,0,0,0,.452.125h3.694a.729.729,0,0,0,.553-.246.785.785,0,0,0,.226-.533V431.477a.772.772,0,0,0-.779-.779H187.84a.778.778,0,0,0-.533.226.729.729,0,0,0-.246.553l.206,16.22c0,.085-.02.129-.061.145s-.073-.02-.1-.1l-6.366-16.386a1.138,1.138,0,0,0-.331-.492.665.665,0,0,0-.412-.166h-3.779a.712.712,0,0,0-.513.226.756.756,0,0,0-.226.553v26.365a.739.739,0,0,0,.226.553.712.712,0,0,0,.513.226h3.532a.7.7,0,0,0,.513-.226m-12.623-.04a.812.812,0,0,0,.125-.678l-5.874-26.324a1.105,1.105,0,0,0-.266-.472.648.648,0,0,0-.472-.186h-4.6a.653.653,0,0,0-.452.186.98.98,0,0,0-.287.472l-6.08,26.284a.7.7,0,0,0,.743.985h3.859a.788.788,0,0,0,.513-.125.932.932,0,0,0,.226-.493l.573-2.955a.716.716,0,0,1,.246-.493.772.772,0,0,1,.492-.166h4.477a.733.733,0,0,1,.513.166.754.754,0,0,1,.226.493l.573,2.955a.727.727,0,0,0,.246.432.7.7,0,0,0,.492.186h4.106a.737.737,0,0,0,.618-.266m-6.984-8.231a.541.541,0,0,1-.452.166h-3.08a.532.532,0,0,1-.432-.166.617.617,0,0,1-.1-.492l2.055-10.924c.028-.109.052-.166.085-.166s.052.057.081.166l1.93,10.924a.66.66,0,0,1-.081.492m-17.924-2.979a6.64,6.64,0,0,0-2.2-2.487.373.373,0,0,1-.166-.307.359.359,0,0,1,.166-.307,7.514,7.514,0,0,0,1.97-2.507,6.959,6.959,0,0,0,.7-3.08,7.216,7.216,0,0,0-2.4-5.567,8.536,8.536,0,0,0-5.975-2.2h-7.145a.712.712,0,0,0-.513.226.756.756,0,0,0-.226.553v26.365a.74.74,0,0,0,.226.553.712.712,0,0,0,.513.226h7.065a8.827,8.827,0,0,0,6.306-2.341,7.68,7.68,0,0,0,2.483-5.829,7.114,7.114,0,0,0-.8-3.3m-10.1-4.99a.619.619,0,0,1-.186-.493V435.91a.619.619,0,0,1,.186-.493.752.752,0,0,1,.513-.166h1.191a3.631,3.631,0,0,1,2.648.9,3.408,3.408,0,0,1,.924,2.543,3.755,3.755,0,0,1-.9,2.608,3.146,3.146,0,0,1-2.463,1.005h-1.4a.731.731,0,0,1-.513-.161m0,11.7a.619.619,0,0,1-.186-.493v-5.995a.619.619,0,0,1,.186-.492.752.752,0,0,1,.513-.166H134.5a3.6,3.6,0,0,1,2.668.985,3.494,3.494,0,0,1,.985,2.588,3.688,3.688,0,0,1-1.025,2.688,3.576,3.576,0,0,1-2.668,1.05h-1.312a.756.756,0,0,1-.517-.166m-25.461,4.537a.755.755,0,0,0,.226-.553v-9.281a.542.542,0,0,1,.1-.391.723.723,0,0,1,.472-.1h1.151a.688.688,0,0,1,.392.081,1.05,1.05,0,0,1,.226.412l3.411,9.527a.716.716,0,0,0,.266.412.744.744,0,0,0,.432.125h4.311a.761.761,0,0,0,.678-.331.747.747,0,0,0,.061-.739l-4.19-10.718a1.5,1.5,0,0,1-.125-.678.727.727,0,0,1,.331-.432,7.929,7.929,0,0,0,2.689-2.955,8.7,8.7,0,0,0,.84-3.94,7.654,7.654,0,0,0-2.362-6.015,9.669,9.669,0,0,0-6.673-2.115h-6.778a.705.705,0,0,0-.513.226.755.755,0,0,0-.226.553v26.365a.755.755,0,0,0,.226.553.712.712,0,0,0,.513.226h4.025a.71.71,0,0,0,.513-.23m.412-15.6a.69.69,0,0,1-.186-.513v-6.2a.739.739,0,0,1,.186-.553.677.677,0,0,1,.513-.186h1.231a3.327,3.327,0,0,1,2.547,1.005,3.829,3.829,0,0,1,.945,2.729,4.091,4.091,0,0,1-.965,2.814,3.211,3.211,0,0,1-2.527,1.09h-1.231a.7.7,0,0,1-.513-.186M81.791,453.24a3.771,3.771,0,0,1-.719-2.422V431.477a.772.772,0,0,0-.779-.779H76.309a.712.712,0,0,0-.513.226.74.74,0,0,0-.226.553v19.874a7.113,7.113,0,0,0,2.281,5.5,8.364,8.364,0,0,0,5.894,2.1,8.5,8.5,0,0,0,5.975-2.055,7.147,7.147,0,0,0,2.236-5.543V431.477a.755.755,0,0,0-.226-.553.764.764,0,0,0-.557-.226H87.188a.705.705,0,0,0-.513.226.755.755,0,0,0-.226.553v19.341a3.771,3.771,0,0,1-.719,2.422,2.406,2.406,0,0,1-1.99.9,2.355,2.355,0,0,1-1.95-.9" transform="translate(-45.463 -257.229)" fill="#f0f0dc"/>
        <path id="Trazado_1562" data-name="Trazado 1562" d="M158.683,143.532q12.825-11.766,12.829-31.778V5.479a4.412,4.412,0,0,0-4.469-4.469H144.211A4.055,4.055,0,0,0,141.268,2.3a4.331,4.331,0,0,0-1.3,3.177V108.694q0,8.714-4.122,13.891a13.191,13.191,0,0,1-5.115,3.972,2.242,2.242,0,0,0-1.3,2.071v23.983a2.294,2.294,0,0,0,2.511,2.3q16.234-1.762,26.732-11.38" transform="translate(-77.586 -1.006)" fill="#f0f0dc"/>
        <path id="Trazado_1563" data-name="Trazado 1563" d="M36.656,122.579q-4.124-5.177-4.118-13.891V5.473a4.334,4.334,0,0,0-1.3-3.177A4.334,4.334,0,0,0,28.065,1H5.229A4.066,4.066,0,0,0,2.286,2.3,4.324,4.324,0,0,0,.99,5.473V111.748q0,19.541,13.067,31.544,10.651,9.785,26.393,11.586a2.323,2.323,0,0,0,2.616-2.289V128.642a2.236,2.236,0,0,0-1.292-2.067,13.216,13.216,0,0,1-5.119-4" transform="translate(-0.99 -1)" fill="#f0f0dc"/>
        <path id="Trazado_1564" data-name="Trazado 1564" d="M297.434,57.9V5.473A4.425,4.425,0,0,0,292.961,1H270.129a4.066,4.066,0,0,0-2.943,1.3,4.318,4.318,0,0,0-1.3,3.177V148.94a4.305,4.305,0,0,0,1.3,3.177,4.05,4.05,0,0,0,2.943,1.3h22.833A4.147,4.147,0,0,0,296.138,152a4.467,4.467,0,0,0,1.3-3.06V57.9Z" transform="translate(-158.953 -1)" fill="#f0f0dc"/>
        <path id="Trazado_1565" data-name="Trazado 1565" d="M417.3,1H394.7a4.474,4.474,0,0,0-3.06,1.3,4.14,4.14,0,0,0-1.413,3.177V57.9a4.333,4.333,0,0,1-1.3,3.177,4.057,4.057,0,0,1-2.943,1.3H370.529a2.309,2.309,0,0,0-2.309,2.309V87.373a2.309,2.309,0,0,0,2.309,2.309H385.99a4.073,4.073,0,0,1,2.943,1.3,4.333,4.333,0,0,1,1.3,3.177V148.94a4.29,4.29,0,0,0,1.3,3.177,4.044,4.044,0,0,0,2.943,1.3H417.3A4.147,4.147,0,0,0,420.477,152a4.462,4.462,0,0,0,1.292-3.06V5.473A4.33,4.33,0,0,0,420.477,2.3,4.318,4.318,0,0,0,417.3,1" transform="translate(-219.973 -1)" fill="#f0f0dc"/>
      </g>
    </g>
  </g>
</svg>
